<?xml version="1.0" standalone="no"?>
<!DOCTYPE svg PUBLIC "-//W3C//DTD SVG 20010904//EN"
 "http://www.w3.org/TR/2001/REC-SVG-20010904/DTD/svg10.dtd">
<svg version="1.0" xmlns="http://www.w3.org/2000/svg"
 width="800.000000pt" height="800.000000pt" viewBox="0 0 800.000000 800.000000"
 preserveAspectRatio="xMidYMid meet">

<g transform="translate(0.000000,800.000000) scale(0.100000,-0.100000)"
fill="#000000" stroke="none">
<path d="M0 4000 l0 -4000 4000 0 4000 0 0 4000 0 4000 -4000 0 -4000 0 0
-4000z m3785 1554 c357 -62 645 -217 893 -479 207 -219 342 -486 403 -797 34
-168 32 -406 -4 -579 -65 -312 -197 -564 -411 -786 -432 -449 -1048 -602
-1638 -407 -90 30 -124 53 -133 93 -12 56 15 86 122 136 290 136 561 402 687
676 81 176 115 323 123 544 7 184 -9 306 -59 465 -115 364 -388 671 -747 841
-101 48 -118 61 -126 99 -10 43 19 88 69 111 55 24 219 68 316 84 110 19 396
18 505 -1z"/>
</g>
</svg>
