<?xml version="1.0" standalone="no"?>
<!DOCTYPE svg PUBLIC "-//W3C//DTD SVG 20010904//EN"
 "http://www.w3.org/TR/2001/REC-SVG-20010904/DTD/svg10.dtd">
<svg version="1.0" xmlns="http://www.w3.org/2000/svg"
 width="612.000000pt" height="612.000000pt" viewBox="0 0 612.000000 612.000000"
 preserveAspectRatio="xMidYMid meet">

<g transform="translate(0.000000,612.000000) scale(0.100000,-0.100000)"
fill="#000000" stroke="none">
<path d="M3020 4570 c-19 -19 -20 -33 -20 -358 0 -316 1 -340 18 -355 24 -22
65 -21 85 1 15 17 17 56 17 355 0 324 -1 338 -20 357 -11 11 -29 20 -40 20
-11 0 -29 -9 -40 -20z"/>
<path d="M1980 4140 c-41 -41 -31 -53 223 -307 254 -254 266 -264 307 -223 41
41 31 53 -223 307 -254 254 -266 264 -307 223z"/>
<path d="M3833 3917 c-254 -254 -264 -266 -223 -307 41 -41 53 -31 307 223
254 254 264 266 223 307 -41 41 -53 31 -307 -223z"/>
<path d="M2945 3750 c-272 -50 -490 -251 -562 -520 -26 -100 -24 -265 6 -360
74 -240 240 -406 481 -481 106 -33 274 -33 380 0 242 75 406 239 481 481 30
96 32 261 6 360 -51 192 -190 366 -357 448 -47 23 -112 49 -145 57 -74 20
-223 27 -290 15z m302 -140 c161 -56 294 -187 360 -355 24 -63 27 -83 27 -195
0 -112 -3 -132 -27 -195 -69 -175 -199 -300 -369 -356 -101 -33 -252 -34 -353
-2 -226 71 -388 281 -402 518 -16 282 167 530 443 600 82 21 239 13 321 -15z"/>
<path d="M1550 3100 c-11 -11 -20 -29 -20 -40 0 -11 9 -29 20 -40 19 -19 33
-20 359 -20 372 0 371 0 371 59 0 61 -3 61 -373 61 -324 0 -338 -1 -357 -20z"/>
<path d="M3857 3102 c-24 -26 -21 -68 5 -86 19 -14 70 -16 355 -16 320 0 334
1 353 20 24 24 25 48 4 78 l-15 22 -343 0 c-319 0 -344 -1 -359 -18z"/>
<path d="M2203 2287 c-254 -254 -264 -266 -223 -307 41 -41 53 -31 307 223
254 254 264 266 223 307 -41 41 -53 31 -307 -223z"/>
<path d="M3610 2510 c-41 -41 -31 -53 223 -307 254 -254 266 -264 307 -223 41
41 31 53 -223 307 -254 254 -266 264 -307 223z"/>
<path d="M3016 2258 c-14 -19 -16 -70 -16 -355 0 -320 1 -334 20 -353 11 -11
29 -20 40 -20 11 0 29 9 40 20 19 19 20 33 20 358 0 316 -1 340 -18 355 -26
24 -68 21 -86 -5z"/>
</g>
</svg>
